<svg version="1.1" id="Layer_1" xmlns="http://www.w3.org/2000/svg" xmlns:xlink="http://www.w3.org/1999/xlink" x="0px" y="0px"
	 width="100%" viewBox="0 0 180 180" enable-background="new 0 0 180 180" xml:space="preserve">
<path fill="#FFFFFF" opacity="1.000000" stroke="none" 
	d="
M1.000000,72.000000 
	C1.000000,48.348331 1.000000,24.696663 1.000000,1.022497 
	C60.946972,1.022497 120.893959,1.022497 180.920471,1.022497 
	C180.920471,60.908863 180.920471,120.817863 180.920471,180.863434 
	C121.000198,180.863434 61.000149,180.863434 1.000000,180.863434 
	C1.000000,154.570786 1.000000,128.254044 1.365747,101.474625 
	C2.684456,101.724335 3.665807,102.402168 4.584453,103.156372 
	C6.479985,104.712608 8.342075,106.309593 10.415741,107.904709 
	C10.613558,107.919601 11.002007,108.007919 11.060947,108.354523 
	C12.806838,110.662346 14.162946,110.784706 15.231298,107.887840 
	C15.705451,107.520844 15.944978,107.269623 16.467915,106.974113 
	C16.791439,106.270958 16.831549,105.612106 16.913048,104.628609 
	C17.231707,103.503326 17.508978,102.702690 18.173244,101.928001 
	C22.128202,99.925026 25.381481,96.017685 30.055233,100.232391 
	C30.297445,100.665955 30.500584,100.854195 30.832333,101.307159 
	C31.005699,102.057281 31.102850,102.486137 30.904358,103.124390 
	C29.873627,107.443306 30.340347,108.263519 33.521835,107.787804 
	C35.252422,107.794350 36.583691,107.764618 38.108768,108.038727 
	C41.627914,109.525734 41.895348,107.850937 41.589958,105.114502 
	C41.168831,101.340950 41.893250,97.847137 45.554382,95.262596 
	C46.680687,98.952827 46.898251,102.605103 47.499233,106.193153 
	C47.704472,107.418503 48.872421,108.482605 49.600510,109.620377 
	C50.066948,109.084038 50.533382,108.547699 51.367241,107.976006 
	C52.706257,107.887367 53.677856,107.834076 55.121021,107.841187 
	C57.806534,107.890617 60.020481,107.879639 62.532932,107.866150 
	C63.218189,107.779320 63.604939,107.695007 64.292725,107.703339 
	C65.011879,107.835571 65.430000,107.875168 66.258881,107.872910 
	C67.109657,106.551941 67.660469,105.298546 67.965004,103.987938 
	C68.486893,101.741966 68.854797,99.460220 69.287361,97.193489 
	C71.508858,98.458611 73.739151,99.708748 75.943962,101.002296 
	C76.352776,101.242142 76.658928,101.656952 77.006805,102.341965 
	C76.026619,105.597794 77.033722,107.801437 79.943596,108.312439 
	C81.845634,108.646439 84.265175,112.302917 86.264908,107.944481 
	C86.896042,107.865891 87.260033,107.847717 88.046036,107.911606 
	C90.556526,108.461868 92.632851,109.208412 94.737747,109.300293 
	C96.139160,109.361465 97.581337,108.488480 99.466499,107.974907 
	C104.258392,107.810715 108.589050,107.705223 113.249077,107.717133 
	C114.041122,107.857475 114.503799,107.880417 115.140549,108.166763 
	C116.207184,108.294975 117.099762,108.159782 118.316757,108.015823 
	C119.397354,107.667564 120.153542,107.328056 121.300514,106.989120 
	C122.830620,106.235611 124.765717,105.654358 124.973419,104.697960 
	C125.944649,100.225708 129.250488,100.922211 132.256378,101.048927 
	C133.854477,101.116295 135.432587,101.657433 137.402481,101.980545 
	C138.294876,101.924469 138.804504,101.872559 139.531006,102.086411 
	C140.217468,103.883743 140.687073,105.415321 140.891174,107.131027 
	C141.906891,111.050133 144.407364,110.157219 147.279907,108.972824 
	C148.054031,108.641472 148.528534,108.326637 149.311005,107.989761 
	C149.822891,107.939835 150.026840,107.911957 150.682922,107.888031 
	C156.075577,107.884789 161.016098,107.877579 166.176514,108.166534 
	C167.596191,108.637184 168.795959,108.811676 170.207245,109.252548 
	C175.207397,109.640083 175.710022,106.745300 175.006897,102.654335 
	C174.990891,101.845703 174.973190,101.383659 174.977692,100.511276 
	C175.001419,98.731735 175.002975,97.362534 175.027176,95.749237 
	C175.049820,95.505135 175.093262,95.016762 175.444580,94.967331 
	C176.761078,93.670166 178.513824,92.443436 178.547745,91.170876 
	C178.661880,86.890083 178.551102,82.522659 177.787811,78.322594 
	C177.073746,74.393440 175.171936,71.375160 170.011398,71.903404 
	C163.613159,72.558342 157.058105,73.230667 150.730957,72.502907 
	C146.280533,71.990997 143.415283,72.197029 142.122360,76.991814 
	C140.394150,75.761932 138.860046,74.997597 137.760315,73.825630 
	C134.576157,70.432274 130.710648,71.733528 127.093285,72.275215 
	C125.983459,72.441399 124.631287,74.102257 124.333443,75.311104 
	C124.176109,75.949661 126.048332,77.088280 126.978546,78.325470 
	C126.587364,79.424690 126.221878,80.199577 125.548225,80.980179 
	C124.827850,80.991188 124.415642,80.996475 123.581757,81.001114 
	C119.310951,80.532059 117.942482,82.156158 117.910896,86.080956 
	C117.847389,93.969826 114.633286,97.851723 107.553902,98.547127 
	C105.113770,98.786819 102.529297,97.557198 99.818047,96.993179 
	C99.625328,96.987587 99.240288,96.972336 99.181915,96.509399 
	C99.158531,89.704323 99.193520,83.362183 99.499084,76.828445 
	C101.784454,73.407516 100.446236,72.053871 97.094948,72.184525 
	C93.723495,72.315964 90.362778,72.723030 86.628571,72.966843 
	C81.528542,71.739456 80.479004,72.581802 79.964455,77.433075 
	C79.659027,80.312675 78.967293,83.151299 78.426895,86.131699 
	C76.078354,83.912537 74.538628,82.457642 72.963051,80.651802 
	C70.628181,77.868317 68.649612,74.973389 65.957664,73.107864 
	C61.536449,70.043961 58.450745,74.270096 54.836449,75.804199 
	C54.511372,75.346077 54.275879,75.131180 53.956146,74.632843 
	C49.937542,74.210403 45.968006,74.109932 41.772629,73.739975 
	C40.372978,74.346481 38.866753,75.004532 38.112198,76.155403 
	C37.232178,77.497635 37.009048,79.270554 36.156086,81.932770 
	C33.611523,78.949905 31.898148,76.817314 30.040239,74.819115 
	C29.191317,73.906090 27.503098,72.395805 27.141964,72.628059 
	C24.592220,74.267807 20.538317,70.743347 18.772245,75.617195 
	C17.248657,79.821854 15.008029,84.326096 8.937517,83.058022 
	C8.954957,83.048981 8.945904,83.062965 8.955534,82.776550 
	C8.717055,82.005028 8.468946,81.519913 8.148121,80.704849 
	C8.036274,79.926498 7.997144,79.478111 8.327689,78.955093 
	C10.744890,75.017921 9.757058,72.535942 5.868432,72.055756 
	C4.267735,71.858086 2.624103,72.008125 1.000000,72.000000 
z"/>
<path fill="#F5FCFC" opacity="1.000000" stroke="none" 
	d="
M10.217924,107.889809 
	C8.342075,106.309593 6.479985,104.712608 4.584453,103.156372 
	C3.665807,102.402168 2.684456,101.724335 1.365747,101.005966 
	C1.000000,91.645775 1.000000,82.291542 1.000000,72.468658 
	C2.624103,72.008125 4.267735,71.858086 5.868432,72.055756 
	C9.757058,72.535942 10.744890,75.017921 8.339684,78.965508 
	C7.982002,79.050537 7.951993,79.060822 7.968455,78.720993 
	C7.675614,77.594002 7.366312,76.806839 6.790024,75.758377 
	C5.151100,75.390472 3.779163,75.283875 1.932235,75.140373 
	C4.815858,86.537979 7.516891,97.213890 10.217924,107.889809 
z"/>
<path fill="#FAFDFC" opacity="1.000000" stroke="none" 
	d="
M149.003052,108.011810 
	C148.528534,108.326637 148.054031,108.641472 147.283295,108.608368 
	C146.949844,107.774597 146.912613,107.288750 146.841660,106.676453 
	C146.807938,106.549995 146.859039,106.293274 146.831009,106.027222 
	C146.564560,105.509949 146.326141,105.258736 146.021042,104.807381 
	C145.954346,104.607246 145.921539,104.186607 145.876984,103.941376 
	C145.693344,103.377159 145.464645,103.147438 145.069489,102.795792 
	C144.992615,102.584602 144.944473,102.137703 144.899872,101.908524 
	C144.729050,101.380638 144.520493,101.159698 144.065765,100.711868 
	C143.582962,99.316231 143.263977,98.225250 142.897736,96.905121 
	C142.720901,96.377808 142.509750,96.158028 142.099152,95.685501 
	C141.614639,94.249847 141.248032,93.145332 141.127563,91.883148 
	C140.933990,91.147507 140.494263,90.569527 139.988251,89.808846 
	C139.921951,89.626152 139.892654,89.238564 139.860382,88.988876 
	C139.607971,88.497047 139.387802,88.254913 139.105621,87.777283 
	C139.043610,87.541779 138.975662,87.059494 138.919220,86.848808 
	C138.734787,86.365860 138.537521,86.159996 138.154907,85.659142 
	C137.117554,83.040688 136.392059,80.673347 135.205200,78.565826 
	C134.431610,77.192131 132.912460,75.184364 131.860809,75.262299 
	C130.183502,75.386604 128.617386,77.011032 127.004242,78.001137 
	C126.048332,77.088280 124.176109,75.949661 124.333443,75.311104 
	C124.631287,74.102257 125.983459,72.441399 127.093285,72.275215 
	C130.710648,71.733528 134.576157,70.432274 137.760315,73.825630 
	C138.860046,74.997597 140.394150,75.761932 142.122360,76.991814 
	C143.415283,72.197029 146.280533,71.990997 150.730957,72.502907 
	C157.058105,73.230667 163.613159,72.558342 170.011398,71.903404 
	C175.171936,71.375160 177.073746,74.393440 177.787811,78.322594 
	C178.551102,82.522659 178.661880,86.890083 178.547745,91.170876 
	C178.513824,92.443436 176.761078,93.670166 175.310242,94.746674 
	C174.545395,94.385147 174.266220,94.194839 173.760468,93.853622 
	C173.315567,93.211273 173.097244,92.719826 172.913040,91.853195 
	C172.577850,90.628204 172.208542,89.778389 171.936157,88.686508 
	C172.111893,88.289505 172.190689,88.134567 172.440155,87.866875 
	C172.816162,87.559456 172.949188,87.323914 173.107742,86.716736 
	C174.942978,83.741325 175.204620,80.952431 172.440033,79.108070 
	C169.822052,77.361526 166.819962,75.627861 163.797455,75.187111 
	C159.632767,74.579803 155.290146,75.192757 150.777466,75.295059 
	C150.247940,75.490379 150.031357,75.733101 149.644608,76.246582 
	C149.539047,77.623192 149.670303,78.788528 149.858994,80.407318 
	C149.882507,83.901100 149.848557,86.941429 149.562134,90.310745 
	C149.207458,96.430428 149.105255,102.221115 149.003052,108.011810 
z"/>
<path fill="#77B3EC" opacity="1.000000" stroke="none" 
	d="
M172.269501,87.979630 
	C172.190689,88.134567 172.111893,88.289505 171.649994,88.743729 
	C169.335297,90.796394 169.335297,90.796394 172.878922,92.228371 
	C173.097244,92.719826 173.315567,93.211273 173.789490,94.147293 
	C174.364899,95.059013 174.684723,95.526169 175.004532,95.993332 
	C175.002975,97.362534 175.001419,98.731735 174.741348,100.697983 
	C174.333405,101.866058 174.183960,102.437096 173.789001,103.204269 
	C172.339401,104.550591 171.135345,105.700775 169.577759,106.875656 
	C168.135025,107.223694 167.045822,107.547028 165.956619,107.870369 
	C161.016098,107.877579 156.075577,107.884789 150.679993,107.646667 
	C150.224945,107.401344 150.270676,106.919601 150.508911,106.595657 
	C150.839340,95.942131 150.931549,85.612556 151.023743,75.282982 
	C155.290146,75.192757 159.632767,74.579803 163.797455,75.187111 
	C166.819962,75.627861 169.822052,77.361526 172.440033,79.108070 
	C175.204620,80.952431 174.942978,83.741325 172.912842,86.810257 
	C172.352203,87.411858 172.235352,87.660233 172.269501,87.979630 
M168.191055,94.160812 
	C163.907333,93.677162 159.623611,93.193512 155.317810,92.707359 
	C155.317810,97.410019 155.317810,100.965324 155.317810,104.951485 
	C158.159393,104.951485 160.644226,105.210411 163.054703,104.897232 
	C167.977417,104.257645 172.644897,100.588219 168.191055,94.160812 
M164.881714,79.083595 
	C161.655243,79.083595 158.428757,79.083595 155.295563,79.083595 
	C155.295563,82.751419 155.295563,85.643639 155.295563,88.962387 
	C157.944733,88.962387 160.329498,89.377701 162.480026,88.845909 
	C164.642181,88.311226 167.916336,87.153381 168.264069,85.689293 
	C168.704941,83.833076 166.685593,81.392517 164.881714,79.083595 
z"/>
<path fill="#76B4ED" opacity="1.000000" stroke="none" 
	d="
M65.848122,107.914757 
	C65.430000,107.875168 65.011879,107.835571 64.219688,107.325577 
	C63.589027,97.187851 63.259895,87.520630 63.246517,77.852974 
	C63.245663,77.238503 65.697861,76.620644 67.273560,76.191757 
	C68.952072,78.288162 70.365883,80.197182 71.866241,82.350876 
	C72.036865,82.746765 72.120949,82.897980 72.262131,83.258827 
	C72.477432,83.732445 72.705688,83.902557 73.117523,84.302948 
	C76.200218,89.201744 79.169357,93.776382 82.954948,99.608948 
	C82.954948,91.758011 83.099823,85.510880 82.894089,79.275307 
	C82.790558,76.137276 83.673248,74.543060 87.272987,75.278641 
	C87.572021,86.339653 87.598022,97.084595 87.624016,107.829536 
	C87.260033,107.847717 86.896042,107.865891 85.895111,107.889664 
	C82.950050,105.905785 80.641937,103.916313 78.238373,101.579117 
	C74.503899,95.632317 70.864883,90.033257 67.225876,84.434189 
	C66.766624,84.533974 66.307373,84.633759 65.848122,84.733543 
	C65.848122,92.460617 65.848122,100.187683 65.848122,107.914757 
z"/>
<path fill="#EDFAFD" opacity="1.000000" stroke="none" 
	d="
M8.920076,83.067062 
	C15.008029,84.326096 17.248657,79.821854 18.772245,75.617195 
	C20.538317,70.743347 24.592220,74.267807 27.141964,72.628059 
	C27.503098,72.395805 29.191317,73.906090 30.040239,74.819115 
	C31.898148,76.817314 33.611523,78.949905 36.156086,81.932770 
	C37.009048,79.270554 37.232178,77.497635 38.112198,76.155403 
	C38.866753,75.004532 40.372978,74.346481 41.774410,74.006027 
	C42.003265,74.719009 42.004494,74.896454 41.751373,75.350212 
	C39.635262,83.622803 37.798977,91.625305 35.854782,99.601501 
	C35.724224,100.137123 34.777786,100.473877 34.167679,100.554367 
	C33.792446,99.354675 33.460354,98.503731 33.146698,97.490944 
	C33.165138,97.329102 33.061405,97.020279 33.059334,96.684631 
	C32.752563,95.772919 32.447865,95.196869 32.140648,94.343063 
	C32.064854,93.702568 31.991575,93.339828 31.933929,92.679718 
	C31.641813,91.901222 31.334064,91.420105 31.029953,90.615707 
	C30.785038,89.508980 30.536489,88.725525 30.211571,87.591003 
	C29.802120,86.365692 29.469036,85.491455 29.141178,84.245750 
	C28.363050,81.735771 27.934336,79.362061 26.710033,77.515976 
	C25.034418,74.989388 22.664871,75.328949 21.094385,77.740227 
	C20.040794,79.357872 19.529278,81.367577 18.966742,83.258820 
	C17.188076,89.238655 15.499531,95.245293 13.776128,101.241562 
	C13.376740,101.274002 12.977351,101.306442 12.577964,101.338882 
	C11.358667,95.248276 10.139372,89.157669 8.920076,83.067062 
M35.269878,83.877213 
	C35.408062,84.423508 35.546242,84.969810 35.684425,85.516106 
	C36.044289,85.325508 36.404152,85.134911 36.764011,84.944313 
	C36.412083,84.444405 36.060154,83.944504 35.269878,83.877213 
z"/>
<path fill="#79B3E8" opacity="1.000000" stroke="none" 
	d="
M146.859039,106.293274 
	C146.859039,106.293274 146.807938,106.549995 146.555420,106.867989 
	C144.587509,107.106293 142.872086,107.026596 141.156677,106.946899 
	C140.687073,105.415321 140.217468,103.883743 139.461151,101.872063 
	C139.174454,101.391953 138.956909,100.996338 138.931519,100.666718 
	C138.796173,99.911606 138.686234,99.486107 138.451828,98.751511 
	C137.222946,98.311119 136.118530,98.179832 134.558197,98.003006 
	C123.370239,97.835091 121.799461,98.910378 120.909729,106.988556 
	C120.153542,107.328056 119.397354,107.667564 118.191460,107.716614 
	C117.798424,105.283516 117.855087,103.140884 117.996078,100.816261 
	C118.080399,100.634277 118.116119,100.234726 118.368553,99.982452 
	C119.442421,97.499397 120.263855,95.268600 121.303314,92.844666 
	C121.677361,92.100502 121.833389,91.549484 122.256302,90.772583 
	C123.634254,87.355949 124.745331,84.165207 125.856400,80.974457 
	C126.221878,80.199577 126.587364,79.424690 126.978546,78.325470 
	C128.617386,77.011032 130.183502,75.386604 131.860809,75.262299 
	C132.912460,75.184364 134.431610,77.192131 135.205200,78.565826 
	C136.392059,80.673347 137.117554,83.040688 138.164551,85.886986 
	C138.442719,86.759880 138.671188,86.954315 138.975662,87.059494 
	C138.975662,87.059494 139.043610,87.541779 139.125854,88.029083 
	C139.436295,88.757118 139.664474,88.997841 139.892654,89.238564 
	C139.892654,89.238564 139.921951,89.626152 139.977509,90.104507 
	C140.315857,91.068855 140.598633,91.554840 140.881424,92.040817 
	C141.248032,93.145332 141.614639,94.249847 142.124695,95.920822 
	C142.414124,96.786194 142.639755,97.001854 142.944992,97.134277 
	C143.263977,98.225250 143.582962,99.316231 144.086273,100.947983 
	C144.409561,101.793945 144.634186,102.010254 144.944473,102.137703 
	C144.944473,102.137703 144.992615,102.584602 145.107773,103.041992 
	C145.455811,103.728455 145.688675,103.957527 145.921539,104.186607 
	C145.921539,104.186607 145.954346,104.607246 146.057831,105.066895 
	C146.393890,105.782120 146.626465,106.037697 146.859039,106.293274 
M126.440506,93.486809 
	C129.668381,93.713661 132.896255,93.940521 136.870544,94.219841 
	C134.971222,89.128479 133.354172,84.793747 131.174728,78.951469 
	C129.159622,84.517464 127.675903,88.615730 126.440506,93.486809 
z"/>
<path fill="#78B2E8" opacity="1.000000" stroke="none" 
	d="
M33.061409,97.020279 
	C33.061405,97.020279 33.165138,97.329102 33.106716,97.911049 
	C33.032909,99.325150 33.017525,100.157295 32.758919,100.994240 
	C32.515697,100.999031 32.029221,101.006744 31.909838,100.786667 
	C31.580362,100.290977 31.308382,100.106712 30.986645,100.012848 
	C30.998781,100.011894 30.984421,100.028198 30.990263,99.652924 
	C30.613754,98.193924 30.231405,97.110207 29.608704,95.810555 
	C29.195070,94.537567 29.021786,93.480507 28.877596,92.072327 
	C28.589546,91.151237 28.272404,90.581284 27.979235,90.007553 
	C28.003208,90.003792 27.971764,90.040802 27.977713,89.682617 
	C27.559292,88.572777 27.134924,87.821121 26.465630,86.818909 
	C25.675508,84.806221 25.130310,83.044090 24.585112,81.281960 
	C24.140825,81.289642 23.696541,81.297333 23.252254,81.305016 
	C21.430252,88.170692 19.608250,95.036369 17.786247,101.902046 
	C17.508978,102.702690 17.231707,103.503326 16.680237,104.807556 
	C16.332191,105.880234 16.258347,106.449318 16.184504,107.018410 
	C15.944978,107.269623 15.705451,107.520844 14.834177,107.831253 
	C13.135622,107.929604 12.068814,107.968765 11.002007,108.007919 
	C11.002007,108.007919 10.613558,107.919601 10.415741,107.904709 
	C7.516891,97.213890 4.815858,86.537979 1.932235,75.140373 
	C3.779163,75.283875 5.151100,75.390472 6.782587,76.092834 
	C7.345421,77.479332 7.648708,78.270081 7.951994,79.060822 
	C7.951993,79.060822 7.982002,79.050537 7.970007,79.040131 
	C7.997144,79.478111 8.036274,79.926498 8.096329,80.997498 
	C8.393469,82.101051 8.669686,82.582008 8.945904,83.062965 
	C8.945904,83.062965 8.954957,83.048981 8.937516,83.058022 
	C10.139372,89.157669 11.358667,95.248276 12.577964,101.338882 
	C12.977351,101.306442 13.376740,101.274002 13.776128,101.241562 
	C15.499531,95.245293 17.188076,89.238655 18.966742,83.258820 
	C19.529278,81.367577 20.040794,79.357872 21.094385,77.740227 
	C22.664871,75.328949 25.034418,74.989388 26.710033,77.515976 
	C27.934336,79.362061 28.363050,81.735771 29.103168,84.641296 
	C29.469267,86.252892 29.878605,87.097481 30.287941,87.942078 
	C30.536489,88.725525 30.785038,89.508980 31.037350,90.913376 
	C31.333509,92.015244 31.625904,92.496170 31.918301,92.977089 
	C31.991575,93.339828 32.064854,93.702568 32.113182,94.694641 
	C32.412624,95.889404 32.737015,96.454842 33.061409,97.020279 
z"/>
<path fill="#F3FDFE" opacity="1.000000" stroke="none" 
	d="
M88.046036,107.911606 
	C87.598022,97.084595 87.572021,86.339653 87.272995,74.953255 
	C86.999100,73.877640 86.998230,73.443474 86.997360,73.009315 
	C90.362778,72.723030 93.723495,72.315964 97.094948,72.184525 
	C100.446236,72.053871 101.784454,73.407516 99.366379,76.449326 
	C97.496254,75.825424 96.029419,75.389023 94.003036,74.786140 
	C94.003036,85.643188 93.952522,95.399284 94.092651,105.152634 
	C94.104721,105.992050 95.380043,106.813309 96.431656,107.717728 
	C97.531601,107.872833 98.268433,107.953217 99.005272,108.033600 
	C97.581337,108.488480 96.139160,109.361465 94.737747,109.300293 
	C92.632851,109.208412 90.556526,108.461868 88.046036,107.911606 
z"/>
<path fill="#ECFBFD" opacity="1.000000" stroke="none" 
	d="
M42.005722,75.073914 
	C42.004494,74.896454 42.003265,74.719009 42.000256,74.275513 
	C45.968006,74.109932 49.937542,74.210403 53.533043,74.663109 
	C50.435486,74.777046 49.881268,76.300041 49.903416,78.667747 
	C49.983604,87.239235 49.895851,95.812325 49.986053,104.383614 
	C49.998817,105.596283 50.646179,106.802269 50.999817,108.011353 
	C50.533382,108.547699 50.066948,109.084038 49.600510,109.620377 
	C48.872421,108.482605 47.704472,107.418503 47.499233,106.193153 
	C46.898251,102.605103 46.680687,98.952827 45.554382,95.262596 
	C41.893250,97.847137 41.168831,101.340950 41.589958,105.114502 
	C41.895348,107.850937 41.627914,109.525734 38.175949,107.679237 
	C40.742889,96.650948 43.436451,86.285980 46.246510,75.472717 
	C44.518032,75.310173 43.261879,75.192039 42.005722,75.073914 
z"/>
<path fill="#ECFBFD" opacity="1.000000" stroke="none" 
	d="
M71.779694,82.106194 
	C70.365883,80.197182 68.952072,78.288162 67.032562,75.879021 
	C64.071869,74.808434 61.836960,74.449844 61.896770,78.187881 
	C62.055054,88.080742 62.127701,97.974976 62.234428,107.868660 
	C60.020481,107.879639 57.806534,107.890617 55.183151,107.436554 
	C54.860836,105.311234 54.947952,103.650963 55.420471,101.987534 
	C57.127151,100.724197 59.430382,99.576256 59.589581,98.183266 
	C60.112793,93.605217 60.339046,88.868217 59.678825,84.338120 
	C59.393158,82.378006 56.661682,80.774353 55.002377,78.752289 
	C54.988693,78.324707 55.013824,78.153603 55.197151,77.893234 
	C55.244991,77.539551 55.134640,77.275116 54.974785,76.762360 
	C54.937248,76.345657 54.949219,76.177277 54.961193,76.008896 
	C58.450745,74.270096 61.536449,70.043961 65.957664,73.107864 
	C68.649612,74.973389 70.628181,77.868317 72.823532,80.897186 
	C72.406479,81.697739 72.093086,81.901970 71.779694,82.106194 
z"/>
<path fill="#7CB6E9" opacity="1.000000" stroke="none" 
	d="
M54.836449,75.804199 
	C54.949219,76.177277 54.937248,76.345657 54.949417,77.005707 
	C54.973560,77.497383 55.038960,77.982491 55.038960,77.982491 
	C55.013824,78.153603 54.988693,78.324707 54.957050,79.218338 
	C54.978718,87.290810 55.006893,94.640747 55.035065,101.990692 
	C54.947952,103.650963 54.860836,105.311234 54.711586,107.376144 
	C53.677856,107.834076 52.706257,107.887367 51.367237,107.976006 
	C50.646179,106.802269 49.998817,105.596283 49.986053,104.383614 
	C49.895851,95.812325 49.983604,87.239235 49.903416,78.667747 
	C49.881268,76.300041 50.435486,74.777046 53.582115,74.985077 
	C54.275879,75.131180 54.511372,75.346077 54.836449,75.804199 
z"/>
<path fill="#79B4E9" opacity="1.000000" stroke="none" 
	d="
M41.751373,75.350220 
	C43.261879,75.192039 44.518032,75.310173 46.246510,75.472717 
	C43.436451,86.285980 40.742889,96.650948 37.982147,107.375404 
	C36.583691,107.764618 35.252422,107.794350 33.437210,107.456375 
	C32.623749,105.750092 32.294231,104.411499 31.976265,102.728333 
	C32.001621,101.924751 32.015423,101.465752 32.029221,101.006744 
	C32.029221,101.006744 32.515697,100.999031 33.061737,100.981995 
	C33.808788,100.944351 34.009800,100.923737 34.210812,100.903122 
	C34.777786,100.473877 35.724224,100.137123 35.854782,99.601501 
	C37.798977,91.625305 39.635262,83.622803 41.751373,75.350220 
z"/>
<path fill="#FDFEFC" opacity="1.000000" stroke="none" 
	d="
M121.989426,90.998474 
	C121.833389,91.549484 121.677361,92.100502 120.913017,92.878189 
	C119.575180,95.481476 118.845650,97.858101 118.116119,100.234726 
	C118.116119,100.234726 118.080399,100.634277 117.654419,100.877487 
	C111.689919,101.532326 106.151390,101.943954 100.300026,102.378830 
	C100.167465,99.913239 100.089119,98.456009 100.010773,96.998779 
	C102.529297,97.557198 105.113770,98.786819 107.553902,98.547127 
	C114.633286,97.851723 117.847389,93.969826 117.910896,86.080956 
	C117.942482,82.156158 119.310951,80.532059 123.538460,81.370331 
	C123.274368,84.826286 122.631897,87.912384 121.989426,90.998474 
z"/>
<path fill="#6DB0F2" opacity="1.000000" stroke="none" 
	d="
M99.466499,107.974907 
	C98.268433,107.953217 97.531601,107.872833 96.338730,107.339645 
	C94.003754,100.379875 94.679298,79.495453 97.515587,76.648727 
	C97.715996,79.074944 97.927582,80.928001 98.012100,82.786827 
	C98.318413,89.523994 98.582092,96.263107 98.991974,103.245972 
	C99.417114,103.703651 99.712135,103.916847 100.315750,104.397583 
	C103.701614,104.777565 106.810860,104.671890 109.839569,105.115738 
	C110.963486,105.280441 111.898537,106.733948 112.919716,107.599724 
	C108.589050,107.705223 104.258392,107.810715 99.466499,107.974907 
z"/>
<path fill="#EFFDFD" opacity="1.000000" stroke="none" 
	d="
M71.866241,82.350876 
	C72.093086,81.901970 72.406479,81.697739 72.859390,81.248131 
	C74.538628,82.457642 76.078354,83.912537 78.426895,86.131699 
	C78.967293,83.151299 79.659027,80.312675 79.964455,77.433075 
	C80.479004,72.581802 81.528542,71.739456 86.628571,72.966843 
	C86.998230,73.443474 86.999100,73.877640 86.999954,74.637177 
	C83.673248,74.543060 82.790558,76.137276 82.894089,79.275307 
	C83.099823,85.510880 82.954948,91.758011 82.954948,99.608948 
	C79.169357,93.776382 76.200218,89.201744 73.033775,84.108452 
	C72.685081,83.340561 72.474602,83.160362 72.205040,83.049202 
	C72.120949,82.897980 72.036865,82.746765 71.866241,82.350876 
z"/>
<path fill="#ECFBFD" opacity="1.000000" stroke="none" 
	d="
M18.173244,101.928001 
	C19.608250,95.036369 21.430252,88.170692 23.252254,81.305016 
	C23.696541,81.297333 24.140825,81.289642 24.585112,81.281960 
	C25.130310,83.044090 25.675508,84.806221 26.545670,87.142365 
	C27.237677,88.491188 27.604719,89.265999 27.971764,90.040802 
	C27.971764,90.040802 28.003208,90.003792 27.973780,90.343475 
	C28.245735,91.263260 28.547119,91.843353 28.848503,92.423447 
	C29.021786,93.480507 29.195070,94.537567 29.646559,96.185898 
	C30.033802,97.770317 30.142839,98.763466 30.179338,99.827858 
	C30.106802,99.899094 29.963764,100.043610 29.963764,100.043610 
	C25.381481,96.017685 22.128202,99.925026 18.173244,101.928001 
z"/>
<path fill="#E4F5FE" opacity="1.000000" stroke="none" 
	d="
M66.258881,107.872910 
	C65.848122,100.187683 65.848122,92.460617 65.848122,84.733543 
	C66.307373,84.633759 66.766624,84.533974 67.225876,84.434189 
	C70.864883,90.033257 74.503899,95.632317 77.906883,101.603058 
	C77.451393,101.980148 77.231926,101.985580 77.012466,101.991005 
	C76.658928,101.656952 76.352776,101.242142 75.943962,101.002296 
	C73.739151,99.708748 71.508858,98.458611 69.287361,97.193489 
	C68.854797,99.460220 68.486893,101.741966 67.965004,103.987938 
	C67.660469,105.298546 67.109657,106.551941 66.258881,107.872910 
z"/>
<path fill="#8AB5DB" opacity="1.000000" stroke="none" 
	d="
M98.861855,103.001480 
	C98.582092,96.263107 98.318413,89.523994 98.012100,82.786827 
	C97.927582,80.928001 97.715996,79.074944 97.515587,76.648727 
	C94.679298,79.495453 94.003754,100.379875 95.975624,107.264923 
	C95.380043,106.813309 94.104721,105.992050 94.092651,105.152634 
	C93.952522,95.399284 94.003036,85.643188 94.003036,74.786140 
	C96.029419,75.389023 97.496254,75.825424 99.095795,76.640938 
	C99.193520,83.362183 99.158531,89.704323 99.110680,96.936829 
	C99.019157,99.551956 98.940506,101.276718 98.861855,103.001480 
z"/>
<path fill="#F3FDFE" opacity="1.000000" stroke="none" 
	d="
M138.576279,99.060608 
	C138.686234,99.486107 138.796173,99.911606 138.641876,100.688431 
	C137.925003,101.354744 137.472366,101.669724 137.019714,101.984711 
	C135.432587,101.657433 133.854477,101.116295 132.256378,101.048927 
	C129.250488,100.922211 125.944649,100.225708 124.973419,104.697960 
	C124.765717,105.654358 122.830620,106.235611 121.300507,106.989120 
	C121.799461,98.910378 123.370239,97.835091 134.766006,98.251389 
	C136.478561,98.717087 137.527420,98.888847 138.576279,99.060608 
z"/>
<path fill="#F3FDFE" opacity="1.000000" stroke="none" 
	d="
M98.991974,103.245972 
	C98.940506,101.276718 99.019157,99.551956 99.169052,97.399765 
	C99.240288,96.972336 99.625328,96.987587 99.818054,96.993179 
	C100.089119,98.456009 100.167465,99.913239 100.300026,102.378830 
	C106.151390,101.943954 111.689919,101.532326 117.570099,101.059479 
	C117.855087,103.140884 117.798424,105.283516 117.867050,107.725372 
	C117.099762,108.159782 116.207184,108.294975 115.179276,107.741974 
	C114.004128,106.009384 113.027245,104.153412 111.913116,104.066978 
	C107.969826,103.761101 103.979599,104.060234 100.007164,104.130035 
	C99.712135,103.916847 99.417114,103.703651 98.991974,103.245972 
z"/>
<path fill="#7FAED7" opacity="1.000000" stroke="none" 
	d="
M62.532932,107.866150 
	C62.127701,97.974976 62.055054,88.080742 61.896770,78.187881 
	C61.836960,74.449844 64.071869,74.808434 66.767868,75.691620 
	C65.697861,76.620644 63.245663,77.238503 63.246517,77.852974 
	C63.259895,87.520630 63.589027,97.187851 63.918655,107.232933 
	C63.604939,107.695007 63.218189,107.779320 62.532932,107.866150 
z"/>
<path fill="#EFFDFD" opacity="1.000000" stroke="none" 
	d="
M77.006805,102.341965 
	C77.231926,101.985580 77.451393,101.980148 78.002335,101.950783 
	C80.641937,103.916313 82.950050,105.905785 85.627960,107.950073 
	C84.265175,112.302917 81.845634,108.646439 79.943596,108.312439 
	C77.033722,107.801437 76.026619,105.597794 77.006805,102.341965 
z"/>
<path fill="#FAFDFC" opacity="1.000000" stroke="none" 
	d="
M169.931274,106.850960 
	C171.135345,105.700775 172.339401,104.550591 174.031616,103.202774 
	C174.519760,103.005150 175.005234,103.000916 175.005234,103.000916 
	C175.710022,106.745300 175.207397,109.640083 170.204803,108.897072 
	C169.971008,107.800461 169.951141,107.325706 169.931274,106.850960 
z"/>
<path fill="#EAFAFE" opacity="1.000000" stroke="none" 
	d="
M122.256302,90.772583 
	C122.631897,87.912384 123.274368,84.826286 123.960144,81.370979 
	C124.415642,80.996475 124.827850,80.991188 125.548233,80.980179 
	C124.745331,84.165207 123.634254,87.355949 122.256302,90.772583 
z"/>
<path fill="#8AB5DB" opacity="1.000000" stroke="none" 
	d="
M100.315750,104.397583 
	C103.979599,104.060234 107.969826,103.761101 111.913116,104.066978 
	C113.027245,104.153412 114.004128,106.009384 115.005219,107.478561 
	C114.503799,107.880417 114.041122,107.857475 113.249077,107.717133 
	C111.898537,106.733948 110.963486,105.280441 109.839569,105.115738 
	C106.810860,104.671890 103.701614,104.777565 100.315750,104.397583 
z"/>
<path fill="#ECFEFF" opacity="1.000000" stroke="none" 
	d="
M150.270660,106.919601 
	C150.270676,106.919601 150.224945,107.401344 150.227875,107.642708 
	C150.026840,107.911957 149.822891,107.939835 149.311005,107.989761 
	C149.105255,102.221115 149.207458,96.430428 149.628174,90.776199 
	C150.054672,96.248314 150.162674,101.583961 150.270660,106.919601 
z"/>
<path fill="#E4F5FE" opacity="1.000000" stroke="none" 
	d="
M140.891174,107.131027 
	C142.872086,107.026596 144.587509,107.106293 146.589142,106.994446 
	C146.912613,107.288750 146.949844,107.774597 146.983673,108.624893 
	C144.407364,110.157219 141.906891,111.050133 140.891174,107.131027 
z"/>
<path fill="#ECFBFD" opacity="1.000000" stroke="none" 
	d="
M31.964714,103.072906 
	C32.294231,104.411499 32.623749,105.750092 33.037895,107.420105 
	C30.340347,108.263519 29.873627,107.443306 31.098618,103.146713 
	C31.588524,102.959641 31.964714,103.072906 31.964714,103.072906 
z"/>
<path fill="#E3F8FE" opacity="1.000000" stroke="none" 
	d="
M169.577759,106.875656 
	C169.951141,107.325706 169.971008,107.800461 169.993301,108.630684 
	C168.795959,108.811676 167.596191,108.637184 166.176514,108.166534 
	C167.045822,107.547028 168.135025,107.223694 169.577759,106.875656 
z"/>
<path fill="#ECFBFD" opacity="1.000000" stroke="none" 
	d="
M11.060947,108.354523 
	C12.068814,107.968765 13.135622,107.929604 14.599550,107.947037 
	C14.162946,110.784706 12.806838,110.662346 11.060947,108.354523 
z"/>
<path fill="#ECFBFD" opacity="1.000000" stroke="none" 
	d="
M16.467915,106.974113 
	C16.258347,106.449318 16.332191,105.880234 16.638847,105.132195 
	C16.831549,105.612106 16.791439,106.270958 16.467915,106.974113 
z"/>
<path fill="#7BB0E2" opacity="1.000000" stroke="none" 
	d="
M31.976265,102.728333 
	C31.964714,103.072906 31.588524,102.959641 31.394262,102.937317 
	C31.102850,102.486137 31.005699,102.057281 30.905884,101.068375 
	C30.903221,100.508324 30.974510,100.013794 30.974510,100.013794 
	C31.308382,100.106712 31.580362,100.290977 31.909840,100.786667 
	C32.015423,101.465752 32.001621,101.924751 31.976265,102.728333 
z"/>
<path fill="#EDFAFD" opacity="1.000000" stroke="none" 
	d="
M8.955535,82.776550 
	C8.669686,82.582008 8.393469,82.101051 8.169044,81.327446 
	C8.468946,81.519913 8.717055,82.005028 8.955535,82.776550 
z"/>
<path fill="#E3F8FE" opacity="1.000000" stroke="none" 
	d="
M175.006897,102.654335 
	C175.005234,103.000916 174.519760,103.005150 174.277145,103.006645 
	C174.183960,102.437096 174.333405,101.866058 174.719177,101.108315 
	C174.973190,101.383659 174.990891,101.845703 175.006897,102.654335 
z"/>
<path fill="#E4F5FE" opacity="1.000000" stroke="none" 
	d="
M137.402466,101.980545 
	C137.472366,101.669724 137.925003,101.354744 138.667267,101.018051 
	C138.956909,100.996338 139.174454,101.391953 139.244293,101.606293 
	C138.804504,101.872559 138.294876,101.924469 137.402466,101.980545 
z"/>
<path fill="#E3F8FE" opacity="1.000000" stroke="none" 
	d="
M175.027176,95.749237 
	C174.684723,95.526169 174.364899,95.059013 174.016052,94.298187 
	C174.266220,94.194839 174.545395,94.385147 174.958923,94.796112 
	C175.093262,95.016762 175.049820,95.505135 175.027176,95.749237 
z"/>
<path fill="#ECFBFD" opacity="1.000000" stroke="none" 
	d="
M30.986645,100.012848 
	C30.974510,100.013794 30.903221,100.508324 30.829670,100.747108 
	C30.500584,100.854195 30.297445,100.665955 30.055233,100.232391 
	C29.963764,100.043610 30.106802,99.899094 30.362318,99.895119 
	C30.617834,99.891144 30.984421,100.028198 30.984421,100.028198 
	C30.984421,100.028198 30.998781,100.011894 30.986645,100.012848 
z"/>
<path fill="#EDFAFD" opacity="1.000000" stroke="none" 
	d="
M7.968455,78.720993 
	C7.648708,78.270081 7.345421,77.479332 7.049572,76.354141 
	C7.366312,76.806839 7.675614,77.594002 7.968455,78.720993 
z"/>
<path fill="#7DA6CA" opacity="1.000000" stroke="none" 
	d="
M150.508896,106.595657 
	C150.162674,101.583961 150.054672,96.248314 149.880646,90.447212 
	C149.848557,86.941429 149.882507,83.901100 149.922989,80.019226 
	C149.913498,78.130226 149.897461,77.082764 149.881439,76.035309 
	C150.031357,75.733101 150.247940,75.490379 150.777466,75.295059 
	C150.931549,85.612556 150.839340,95.942131 150.508896,106.595657 
z"/>
<path fill="#E3F8FE" opacity="1.000000" stroke="none" 
	d="
M172.913040,91.853195 
	C169.335297,90.796394 169.335297,90.796394 171.553070,88.985794 
	C172.208542,89.778389 172.577850,90.628204 172.913040,91.853195 
z"/>
<path fill="#E4F5FE" opacity="1.000000" stroke="none" 
	d="
M141.127563,91.883148 
	C140.598633,91.554840 140.315857,91.068855 140.043808,90.287201 
	C140.494263,90.569527 140.933990,91.147507 141.127563,91.883148 
z"/>
<path fill="#ECFEFF" opacity="1.000000" stroke="none" 
	d="
M149.644623,76.246582 
	C149.897461,77.082764 149.913498,78.130226 149.865540,79.565765 
	C149.670303,78.788528 149.539047,77.623192 149.644623,76.246582 
z"/>
<path fill="#E4F5FE" opacity="1.000000" stroke="none" 
	d="
M138.919220,86.848808 
	C138.671188,86.954315 138.442719,86.759880 138.280640,86.248360 
	C138.537521,86.159996 138.734787,86.365860 138.919220,86.848808 
z"/>
<path fill="#E4F5FE" opacity="1.000000" stroke="none" 
	d="
M144.899872,101.908524 
	C144.634186,102.010254 144.409561,101.793945 144.250092,101.252640 
	C144.520493,101.159698 144.729050,101.380638 144.899872,101.908524 
z"/>
<path fill="#E4F5FE" opacity="1.000000" stroke="none" 
	d="
M142.897736,96.905121 
	C142.639755,97.001854 142.414124,96.786194 142.242584,96.251961 
	C142.509750,96.158028 142.720901,96.377808 142.897736,96.905121 
z"/>
<path fill="#E4F5FE" opacity="1.000000" stroke="none" 
	d="
M145.876984,103.941376 
	C145.688675,103.957527 145.455811,103.728455 145.184631,103.253189 
	C145.464645,103.147438 145.693344,103.377159 145.876984,103.941376 
z"/>
<path fill="#E3F8FE" opacity="1.000000" stroke="none" 
	d="
M172.440155,87.866875 
	C172.235352,87.660233 172.352203,87.411858 172.814972,87.141006 
	C172.949188,87.323914 172.816162,87.559456 172.440155,87.866875 
z"/>
<path fill="#E4F5FE" opacity="1.000000" stroke="none" 
	d="
M146.831009,106.027222 
	C146.626465,106.037697 146.393890,105.782120 146.124527,105.267029 
	C146.326141,105.258736 146.564560,105.509949 146.831009,106.027222 
z"/>
<path fill="#E4F5FE" opacity="1.000000" stroke="none" 
	d="
M139.860382,88.988876 
	C139.664474,88.997841 139.436295,88.757118 139.187881,88.264587 
	C139.387802,88.254913 139.607971,88.497047 139.860382,88.988876 
z"/>
<path fill="#F2FDFD" opacity="1.000000" stroke="none" 
	d="
M168.516693,94.426178 
	C172.644897,100.588219 167.977417,104.257645 163.054703,104.897232 
	C160.644226,105.210411 158.159393,104.951485 155.317810,104.951485 
	C155.317810,100.965324 155.317810,97.410019 155.317810,92.707359 
	C159.623611,93.193512 163.907333,93.677162 168.516693,94.426178 
z"/>
<path fill="#F4FCFD" opacity="1.000000" stroke="none" 
	d="
M165.304443,79.143768 
	C166.685593,81.392517 168.704941,83.833076 168.264069,85.689293 
	C167.916336,87.153381 164.642181,88.311226 162.480026,88.845909 
	C160.329498,89.377701 157.944733,88.962387 155.295563,88.962387 
	C155.295563,85.643639 155.295563,82.751419 155.295563,79.083595 
	C158.428757,79.083595 161.655243,79.083595 165.304443,79.143768 
z"/>
<path fill="#ECFBFD" opacity="1.000000" stroke="none" 
	d="
M72.262131,83.258827 
	C72.474602,83.160362 72.685081,83.340561 72.920227,83.784294 
	C72.705688,83.902557 72.477432,83.732445 72.262131,83.258827 
z"/>
<path fill="#FFFFFF" opacity="1.000000" stroke="none" 
	d="
M35.489052,83.660904 
	C36.060154,83.944504 36.412083,84.444405 36.764011,84.944313 
	C36.404152,85.134911 36.044289,85.325508 35.684425,85.516106 
	C35.546242,84.969810 35.408062,84.423508 35.489052,83.660904 
z"/>
<path fill="#7BB0E2" opacity="1.000000" stroke="none" 
	d="
M30.211571,87.591003 
	C29.878605,87.097481 29.469267,86.252892 29.097942,85.012756 
	C29.469036,85.491455 29.802120,86.365692 30.211571,87.591003 
z"/>
<path fill="#7BB0E2" opacity="1.000000" stroke="none" 
	d="
M34.167679,100.554367 
	C34.009800,100.923737 33.808788,100.944351 33.304962,100.977203 
	C33.017525,100.157295 33.032909,99.325150 33.088276,98.072891 
	C33.460354,98.503731 33.792446,99.354675 34.167679,100.554367 
z"/>
<path fill="#7BB0E2" opacity="1.000000" stroke="none" 
	d="
M33.059338,96.684631 
	C32.737015,96.454842 32.412624,95.889404 32.115700,94.972389 
	C32.447865,95.196869 32.752563,95.772919 33.059338,96.684631 
z"/>
<path fill="#7BB0E2" opacity="1.000000" stroke="none" 
	d="
M31.933931,92.679718 
	C31.625904,92.496170 31.333509,92.015244 31.033714,91.236656 
	C31.334064,91.420105 31.641813,91.901222 31.933931,92.679718 
z"/>
<path fill="#EAFAFE" opacity="1.000000" stroke="none" 
	d="
M126.316345,93.100403 
	C127.675903,88.615730 129.159622,84.517464 131.174728,78.951469 
	C133.354172,84.793747 134.971222,89.128479 136.870544,94.219841 
	C132.896255,93.940521 129.668381,93.713661 126.316345,93.100403 
z"/>
<path fill="#EAFAFE" opacity="1.000000" stroke="none" 
	d="
M118.368561,99.982452 
	C118.845650,97.858101 119.575180,95.481476 120.694992,93.071335 
	C120.263855,95.268600 119.442421,97.499397 118.368561,99.982452 
z"/>
<path fill="#E4F5FE" opacity="1.000000" stroke="none" 
	d="
M138.451828,98.751511 
	C137.527420,98.888847 136.478561,98.717087 135.221893,98.296936 
	C136.118530,98.179832 137.222946,98.311119 138.451828,98.751511 
z"/>
<path fill="#7BB0E2" opacity="1.000000" stroke="none" 
	d="
M30.990263,99.652924 
	C30.984421,100.028198 30.617834,99.891144 30.434855,99.823883 
	C30.142839,98.763466 30.033802,97.770317 29.886909,96.401825 
	C30.231405,97.110207 30.613754,98.193924 30.990263,99.652924 
z"/>
<path fill="#7BB0E2" opacity="1.000000" stroke="none" 
	d="
M27.977713,89.682617 
	C27.604719,89.265999 27.237677,88.491188 26.790594,87.392921 
	C27.134924,87.821121 27.559292,88.572777 27.977713,89.682617 
z"/>
<path fill="#7BB0E2" opacity="1.000000" stroke="none" 
	d="
M28.877598,92.072327 
	C28.547119,91.843353 28.245735,91.263260 27.949806,90.347244 
	C28.272404,90.581284 28.589546,91.151237 28.877598,92.072327 
z"/>
<path fill="#FFFFFF" opacity="1.000000" stroke="none" 
	d="
M55.420471,101.987534 
	C55.006893,94.640747 54.978718,87.290810 54.995869,79.474823 
	C56.661682,80.774353 59.393158,82.378006 59.678825,84.338120 
	C60.339046,88.868217 60.112793,93.605217 59.589581,98.183266 
	C59.430382,99.576256 57.127151,100.724197 55.420471,101.987534 
z"/>
<path fill="#FFFFFF" opacity="1.000000" stroke="none" 
	d="
M55.197151,77.893234 
	C55.038960,77.982491 54.973560,77.497383 54.998924,77.254028 
	C55.134640,77.275116 55.244991,77.539551 55.197151,77.893234 
z"/>
</svg>